<?xml version="1.0" encoding="UTF-8" standalone="no"?>
<svg
   xmlns:dc="http://purl.org/dc/elements/1.1/"
   xmlns:cc="http://creativecommons.org/ns#"
   xmlns:rdf="http://www.w3.org/1999/02/22-rdf-syntax-ns#"
   xmlns:svg="http://www.w3.org/2000/svg"
   xmlns="http://www.w3.org/2000/svg"
   xmlns:sodipodi="http://sodipodi.sourceforge.net/DTD/sodipodi-0.dtd"
   xmlns:inkscape="http://www.inkscape.org/namespaces/inkscape"
   enable-background="new 0 0 24 24"
   viewBox="0 0 24 24"
   version="1.1"
   id="svg10"
   sodipodi:docname="electron.svg"
   inkscape:version="1.0.2-2 (e86c870879, 2021-01-15)">
  <metadata
     id="metadata16">
    <rdf:RDF>
      <cc:Work
         rdf:about="">
        <dc:format>image/svg+xml</dc:format>
        <dc:type
           rdf:resource="http://purl.org/dc/dcmitype/StillImage" />
      </cc:Work>
    </rdf:RDF>
  </metadata>
  <defs
     id="defs14" />
  <sodipodi:namedview
     pagecolor="#ffffff"
     bordercolor="#666666"
     borderopacity="1"
     objecttolerance="10"
     gridtolerance="10"
     guidetolerance="10"
     inkscape:pageopacity="0"
     inkscape:pageshadow="2"
     inkscape:window-width="693"
     inkscape:window-height="480"
     id="namedview12"
     showgrid="false"
     inkscape:zoom="37.083333"
     inkscape:cx="12"
     inkscape:cy="12"
     inkscape:window-x="2532"
     inkscape:window-y="1059"
     inkscape:window-maximized="0"
     inkscape:current-layer="svg10" />
  <path
     d="M12 24c-1.815 0-3.446-1.728-4.474-4.741-.089-.262.05-.546.312-.635.261-.092.545.05.635.312C9.34 21.481 10.659 23 12 23c1.131 0 2.007-1.039 2.542-1.909.144-.236.452-.309.688-.164.235.145.309.453.164.688C14.434 23.175 13.261 24 12 24zM16.564 17.5c-.033 0-.067-.003-.101-.01-.271-.055-.445-.319-.39-.59.283-1.385.426-2.865.426-4.4C16.5 6.809 14.439 2 12 2c-.276 0-.5-.224-.5-.5S11.724 1 12 1c3.084 0 5.5 5.051 5.5 11.5 0 1.602-.15 3.149-.446 4.6C17.005 17.337 16.797 17.5 16.564 17.5z"
     id="path2"
     style="fill:#ffffff" />
  <path
     d="M12 3c-.827 0-1.5-.673-1.5-1.5S11.173 0 12 0s1.5.673 1.5 1.5S12.827 3 12 3zM12 1c-.276 0-.5.224-.5.5S11.724 2 12 2s.5-.224.5-.5S12.276 1 12 1zM12 14.008c-.827 0-1.5-.673-1.5-1.5s.673-1.5 1.5-1.5 1.5.673 1.5 1.5S12.827 14.008 12 14.008zM12 12.008c-.276 0-.5.224-.5.5s.224.5.5.5.5-.224.5-.5S12.276 12.008 12 12.008zM19.565 13.129c-.111 0-.224-.037-.316-.113-.214-.175-.245-.49-.07-.704 1.706-2.079 2.302-4 1.596-5.14-.569-.917-1.829-1.133-2.785-1.153-.276-.006-.495-.234-.49-.51.006-.276.255-.502.51-.49 1.726.035 2.976.597 3.614 1.626.957 1.544.347 3.84-1.672 6.301C19.853 13.066 19.709 13.129 19.565 13.129zM2.5 19c-.167 0-.331-.084-.425-.237C.45 16.142 3.471 11.427 8.952 8.03c1.56-.967 3.22-1.753 4.799-2.273.261-.086.545.056.631.319.086.262-.057.545-.319.631-1.505.495-3.091 1.246-4.584 2.172-4.838 2.999-7.839 7.284-6.554 9.357.146.234.073.542-.162.688C2.681 18.976 2.59 19 2.5 19z"
     id="path4"
     style="fill:#ffffff" />
  <path
     d="M2.503 20c-.115 0-.23-.014-.345-.041-.39-.091-.721-.329-.932-.669-.436-.703-.219-1.63.484-2.065h0c.34-.211.742-.276 1.133-.186.39.091.721.33.932.67.211.34.277.743.186 1.132-.091.39-.33.721-.67.932C3.05 19.924 2.779 20 2.503 20zM2.237 18.075c-.234.146-.307.454-.162.689.146.233.454.306.688.161.114-.071.193-.181.224-.311.031-.13.009-.264-.062-.377C2.78 18.001 2.471 17.931 2.237 18.075L2.237 18.075zM2.974 11.277c-.17 0-.336-.087-.43-.244C1.465 9.227 1.262 7.582 1.971 6.4c.935-1.556 3.255-2.064 6.368-1.394.27.058.441.324.383.594-.058.27-.322.444-.594.383-2.628-.566-4.61-.218-5.3.931-.511.85-.307 2.13.574 3.605.142.237.064.544-.173.686C3.149 11.254 3.061 11.277 2.974 11.277zM17.804 19.928c-.375 0-.771-.024-1.187-.071-2.336-.269-5.043-1.27-7.622-2.819-1.333-.801-2.551-1.699-3.62-2.667-.205-.186-.22-.501-.035-.707.185-.205.502-.22.707-.035 1.021.925 2.186 1.783 3.463 2.551 2.459 1.478 5.023 2.43 7.221 2.683 2.033.236 3.525-.179 4.097-1.132.142-.236.448-.314.686-.171.237.142.313.449.171.686C21.024 19.347 19.667 19.928 17.804 19.928z"
     id="path6"
     style="fill:#ffffff" />
  <path
     d="M21.255,19.489c-0.263,0-0.528-0.069-0.77-0.214c0,0,0,0,0,0c-0.343-0.207-0.586-0.534-0.683-0.923c-0.097-0.389-0.037-0.792,0.17-1.136c0.206-0.343,0.534-0.586,0.922-0.683c0.389-0.099,0.792-0.038,1.136,0.17c0.343,0.206,0.586,0.534,0.683,0.922s0.037,0.792-0.169,1.135C22.262,19.229,21.765,19.489,21.255,19.489z M21,18.417c0.235,0.141,0.543,0.065,0.686-0.171c0.069-0.114,0.089-0.249,0.057-0.378c-0.032-0.129-0.113-0.238-0.228-0.307c-0.115-0.069-0.25-0.09-0.378-0.057c-0.13,0.032-0.239,0.113-0.308,0.228s-0.089,0.249-0.057,0.378S20.886,18.349,21,18.417L21,18.417z"
     id="path8"
     style="fill:#ffffff" />
</svg>
