<?xml version="1.0" encoding="UTF-8" standalone="no"?>
<svg
   xmlns:dc="http://purl.org/dc/elements/1.1/"
   xmlns:cc="http://creativecommons.org/ns#"
   xmlns:rdf="http://www.w3.org/1999/02/22-rdf-syntax-ns#"
   xmlns:svg="http://www.w3.org/2000/svg"
   xmlns="http://www.w3.org/2000/svg"
   xmlns:sodipodi="http://sodipodi.sourceforge.net/DTD/sodipodi-0.dtd"
   xmlns:inkscape="http://www.inkscape.org/namespaces/inkscape"
   viewBox="0 0 48 48"
   width="96px"
   height="96px"
   version="1.1"
   id="svg4"
   sodipodi:docname="ffmpeg.svg"
   inkscape:version="1.0.2-2 (e86c870879, 2021-01-15)">
  <metadata
     id="metadata10">
    <rdf:RDF>
      <cc:Work
         rdf:about="">
        <dc:format>image/svg+xml</dc:format>
        <dc:type
           rdf:resource="http://purl.org/dc/dcmitype/StillImage" />
      </cc:Work>
    </rdf:RDF>
  </metadata>
  <defs
     id="defs8" />
  <sodipodi:namedview
     pagecolor="#ffffff"
     bordercolor="#666666"
     borderopacity="1"
     objecttolerance="10"
     gridtolerance="10"
     guidetolerance="10"
     inkscape:pageopacity="0"
     inkscape:pageshadow="2"
     inkscape:window-width="726"
     inkscape:window-height="480"
     id="namedview6"
     showgrid="false"
     inkscape:zoom="3.2777346"
     inkscape:cx="52.965083"
     inkscape:cy="25.351599"
     inkscape:window-x="2842"
     inkscape:window-y="893"
     inkscape:window-maximized="0"
     inkscape:current-layer="svg4" />
  <path
     fill="#388e3c"
     d="M 44.360234,47.644142 H 32.538162 c -1.313563,0 -2.49577,-0.788138 -3.021195,-1.970345 -0.525426,-1.182207 -0.262713,-2.627127 0.656781,-3.546621 L 41.076325,31.224599 V 26.101702 L 20.453379,46.724648 c -0.656782,0.656782 -1.44492,0.919494 -2.364415,0.919494 H 3.6397664 c -1.3135634,0 -2.4957705,-0.788138 -3.02119592,-1.970345 C 0.0931451,44.49159 0.35585779,43.04667 1.2753522,42.127176 L 36.478853,6.9236751 H 31.355955 L 6.0041806,32.27545 C 5.0846862,33.194944 3.6397664,33.457657 2.4575593,32.932232 1.1439959,32.406806 0.35585779,31.224599 0.35585779,29.911036 V 15.461838 c 0,-0.919495 0.39406903,-1.707633 0.91949441,-2.364415 L 7.4491005,6.9236751 H 3.5084101 c -1.7076325,0 -3.15255231,-1.4449198 -3.15255231,-3.2839087 0,-1.8389888 1.44491981,-3.28390861 3.28390861,-3.28390861 H 15.461838 c 1.313563,0 2.49577,0.78813811 3.021195,1.97034521 0.525426,1.1822071 0.262713,2.6271269 -0.656781,3.5466213 L 6.9236751,16.775401 v 5.122897 L 27.546621,1.2753522 c 0.656782,-0.52542538 1.44492,-0.91949441 2.364415,-0.91949441 h 14.449198 c 1.313563,0 2.49577,0.78813811 3.021196,1.97034521 0.525425,1.1822071 0.262712,2.6271269 -0.656782,3.5466213 L 11.521147,41.076325 h 5.122898 L 41.995819,15.72455 c 0.919495,-0.919494 2.364415,-1.182207 3.546622,-0.656782 1.182207,0.525426 1.970345,1.707633 1.970345,3.021196 v 14.449198 c 0,0.919495 -0.394069,1.707633 -0.919495,2.364415 l -6.173748,6.173748 h 3.940691 c 1.838988,0 3.283908,1.44492 3.283908,3.283909 0,1.838988 -1.44492,3.283908 -3.283908,3.283908 z"
     id="path2"
     style="stroke-width:1.31356" />
</svg>
