<?xml version="1.0" encoding="UTF-8" standalone="no"?>
<svg
   xmlns:dc="http://purl.org/dc/elements/1.1/"
   xmlns:cc="http://creativecommons.org/ns#"
   xmlns:rdf="http://www.w3.org/1999/02/22-rdf-syntax-ns#"
   xmlns:svg="http://www.w3.org/2000/svg"
   xmlns="http://www.w3.org/2000/svg"
   xmlns:sodipodi="http://sodipodi.sourceforge.net/DTD/sodipodi-0.dtd"
   xmlns:inkscape="http://www.inkscape.org/namespaces/inkscape"
   data-name="Layer 1"
   viewBox="0 0 128 128"
   version="1.1"
   id="svg10"
   sodipodi:docname="video-editing.svg"
   inkscape:version="1.0.2-2 (e86c870879, 2021-01-15)">
  <metadata
     id="metadata16">
    <rdf:RDF>
      <cc:Work
         rdf:about="">
        <dc:format>image/svg+xml</dc:format>
        <dc:type
           rdf:resource="http://purl.org/dc/dcmitype/StillImage" />
      </cc:Work>
    </rdf:RDF>
  </metadata>
  <defs
     id="defs14" />
  <sodipodi:namedview
     pagecolor="#ffffff"
     bordercolor="#666666"
     borderopacity="1"
     objecttolerance="10"
     gridtolerance="10"
     guidetolerance="10"
     inkscape:pageopacity="0"
     inkscape:pageshadow="2"
     inkscape:window-width="1117"
     inkscape:window-height="740"
     id="namedview12"
     showgrid="false"
     inkscape:zoom="3.4765625"
     inkscape:cx="66.583254"
     inkscape:cy="71.938772"
     inkscape:window-x="2198"
     inkscape:window-y="971"
     inkscape:window-maximized="0"
     inkscape:current-layer="svg10" />
  <path
     d="M122,11H6a6.00656,6.00656,0,0,0-6,6v86a6.00656,6.00656,0,0,0,6,6H46v4H32a2,2,0,0,0,0,4H96a2,2,0,0,0,0-4H82v-4h40a6.00656,6.00656,0,0,0,6-6V17A6.00656,6.00656,0,0,0,122,11ZM78,113H50v-4H78Zm46-10a2.002,2.002,0,0,1-2,2H6a2.002,2.002,0,0,1-2-2v-2H124Zm0-6H4V17a2.002,2.002,0,0,1,2-2H122a2.002,2.002,0,0,1,2,2Z"
     id="path2"
     style="fill:#ffffff" />
  <path
     d="M20 46h4a4.00458 4.00458 0 0 0 4-4V36a4.00458 4.00458 0 0 0-4-4H20a4.00458 4.00458 0 0 0-4 4v6A4.00458 4.00458 0 0 0 20 46zm0-10h4v6l-4 .00244zM20 64h4a4.00458 4.00458 0 0 0 4-4V54a4.00458 4.00458 0 0 0-4-4H20a4.00458 4.00458 0 0 0-4 4v6A4.00458 4.00458 0 0 0 20 64zm0-10h4v6l-4 .00244zM20 82h4a4.00458 4.00458 0 0 0 4-4V72a4.00458 4.00458 0 0 0-4-4H20a4.00458 4.00458 0 0 0-4 4v6A4.00458 4.00458 0 0 0 20 82zm0-10h4v6l-4 .00244z"
     id="path4"
     style="fill:#ffffff" />
  <path
     d="M74,86V67.60321l-4-1.01447V86H36V59H52.18494A30.0942,30.0942,0,0,1,48.18,55H36V28H70V45.98444l4,1.03925V28h2.034l-.28552-4H13.752A5.8863,5.8863,0,0,0,8,30V84a5.8863,5.8863,0,0,0,5.752,6H77.76709a13.76238,13.76238,0,0,1-1.4986-4ZM32,86H13.752A1.8905,1.8905,0,0,1,12,84V30a1.8905,1.8905,0,0,1,1.752-2H32Z"
     id="path6"
     style="fill:#ffffff" />
  <path
     d="M112.51611,56.97949a10.16854,10.16854,0,0,0-8.68994,1.87842L96.48346,56.9502a9.02462,9.02462,0,0,0-2.51733-2.65442L92.92969,38.458a26.13782,26.13782,0,0,0-10.188-19.09521,2.00021,2.00021,0,0,0-3.2085,1.73242L81.821,53.14075,50.48584,44.99951a1.99972,1.99972,0,0,0-2.28271,2.84766A26.34479,26.34479,0,0,0,65.22363,61.29785L80.78033,65.243a9.0215,9.0215,0,0,0,2.11639,2.96417l.532,7.45148a10.029,10.029,0,0,0-3.46143,8.14941,9.80342,9.80342,0,0,0,9.81836,9.24023,10.00064,10.00064,0,0,0,1.78662-.16113,10.10416,10.10416,0,0,0,8.12939-8.833,9.80918,9.80918,0,0,0-4.39111-9.21387l-.39343-6.01208,5.91248,1.49939a9.88636,9.88636,0,0,0,8.29785,5.97656q.43359.03955.86572.03955a10.16113,10.16113,0,0,0,9.36377-6.3457A9.73146,9.73146,0,0,0,118.9292,62,9.89639,9.89639,0,0,0,112.51611,56.97949ZM80.02118,60.92413,66.207,57.4209a22.5509,22.5509,0,0,1-11.66309-7.23437l26.65259,6.92468A8.80772,8.80772,0,0,0,80.02118,60.92413Zm13.788.22021a4.86837,4.86837,0,0,1-4.32861,5.42975,4.93473,4.93473,0,0,1-.49915.02533,5.02175,5.02175,0,0,1-4.95355-4.46082,4.86835,4.86835,0,0,1,4.32855-5.42969,4.937,4.937,0,0,1,.49921-.02539A5.0218,5.0218,0,0,1,93.80914,61.14435Zm-4.87067-22.4256L89.85626,52.745a8.974,8.974,0,0,0-1.00055-.06146h-.00031a8.71815,8.71815,0,0,0-3.01843.53552l-1.9444-27.23712A22.237,22.237,0,0,1,88.93848,38.71875Zm6.78076,44.95752a6.03751,6.03751,0,0,1-4.86084,5.27539,5.81655,5.81655,0,0,1-6.89795-5.38135,6.01685,6.01685,0,0,1,2.65527-5.32178,2.001,2.001,0,0,0,.87939-1.80225l-.43274-6.062a8.57585,8.57585,0,0,0,3.94641-.02631l.38037,5.81335A1.999,1.999,0,0,0,92.5,77.83447,5.83325,5.83325,0,0,1,95.71924,83.67627Zm19.90625-15.11963a6.08568,6.08568,0,0,1-6.13574,3.76416,5.88917,5.88917,0,0,1-5.21-4.21826,1.9996,1.9996,0,0,0-1.43164-1.38965l-5.74323-1.45648a8.85115,8.85115,0,0,0,.72662-3.82324l6.01758,1.56342a1.99935,1.99935,0,0,0,1.91846-.52246,6.14042,6.14042,0,0,1,5.7876-1.61182,5.89521,5.89521,0,0,1,3.82568,2.98389A5.65493,5.65493,0,0,1,115.62549,68.55664Z"
     id="path8"
     style="fill:#ffffff" />
</svg>
