<?xml version="1.0" encoding="UTF-8" standalone="no"?>
<svg
   xmlns:dc="http://purl.org/dc/elements/1.1/"
   xmlns:cc="http://creativecommons.org/ns#"
   xmlns:rdf="http://www.w3.org/1999/02/22-rdf-syntax-ns#"
   xmlns:svg="http://www.w3.org/2000/svg"
   xmlns="http://www.w3.org/2000/svg"
   xmlns:sodipodi="http://sodipodi.sourceforge.net/DTD/sodipodi-0.dtd"
   xmlns:inkscape="http://www.inkscape.org/namespaces/inkscape"
   width="126"
   height="98"
   viewBox="0 0 126 98"
   version="1.1"
   xml:space="preserve"
   style="clip-rule:evenodd;fill-rule:evenodd;stroke-linejoin:round;stroke-miterlimit:2"
   id="svg532"
   sodipodi:docname="wikijs.svg"
   inkscape:version="1.0.2-2 (e86c870879, 2021-01-15)"><metadata
     id="metadata536"><rdf:RDF><cc:Work
         rdf:about=""><dc:format>image/svg+xml</dc:format><dc:type
           rdf:resource="http://purl.org/dc/dcmitype/StillImage" /><dc:title></dc:title></cc:Work></rdf:RDF></metadata><sodipodi:namedview
     pagecolor="#ffffff"
     bordercolor="#666666"
     borderopacity="1"
     objecttolerance="10"
     gridtolerance="10"
     guidetolerance="10"
     inkscape:pageopacity="0"
     inkscape:pageshadow="2"
     inkscape:window-width="776"
     inkscape:window-height="480"
     id="namedview534"
     showgrid="false"
     inkscape:zoom="10.472362"
     inkscape:cx="78.054888"
     inkscape:cy="39.773346"
     inkscape:window-x="2755"
     inkscape:window-y="1093"
     inkscape:window-maximized="0"
     inkscape:current-layer="svg532" /><path
     d="m 65.686001,50.653 c 0,0 20.811999,0.75 30.374999,9 9.562,8.25 16.125,24 13.312,37.688 -5.625,-1.313 -29.624999,-5.438 -39.375,-17.438 -9.75,-12 -9.374999,-20.437 -8.25,-25.5 1.125001,-5.062 3.938001,-3.75 3.938001,-3.75"
     style="fill:#1c9cf3;fill-rule:nonzero;stroke-width:1"
     id="path22" /><path
     d="m 62.038,54.454 c -0.474999,2.139 -0.987999,5.498 0.046,9.953 1.125001,4.848 3.801,10.068 8.198,15.31 10.06,11.993 38.391,16.857 38.735,16.932 1.077,-6.234 0.35,-12.729 -2.175,-19.516 -2.494,-6.704 -6.5,-12.668 -11.279,-16.793 -9.414999,-8.121 -30.26,-8.963 -30.469,-8.97 l -0.215,-0.008 -0.155,-0.081 c -0.002,0 -0.177,-0.067 -0.418,-0.067 -0.998,0 -1.802999,1.15 -2.268,3.24 z"
     style="fill:url(#_Radial5);fill-rule:nonzero;stroke-width:1"
     id="path24" /><path
     d="m 60.248,50.653 c 0,0 2.625001,5.438 -3.562,13.688 -6.187999,8.25 -19.125,21.562 -51.375,18.75 1.125,-7.688 6.75,-15.563 12.937,-21.188 6.188,-5.625 20.063001,-11.437 29.25,-11.625 9.188,-0.187 12.75,0.375 12.75,0.375"
     style="fill:#04bbf3;fill-rule:nonzero;stroke-width:1"
     id="path26" /><path
     d="m 47.661,51.007 c -4.286,0.087 -10.037,1.469 -15.783,3.792 -5.596999,2.262 -10.53,5.127 -13.533999,7.858 C 11.582,68.805 7.229,76.074 5.931,82.597 c 2.5960001,0.201 7.447,0.302 7.447,0.302 11.549,0 21.195,-2.117 29.110001,-6.626 7.016999,-3.996 11.231,-8.995 13.79,-12.407 C 61.187,57.321 60.427,52.744 59.995,51.311 c -1.08,-0.116 -3.809999,-0.344 -8.669,-0.344 -1.165,0 -2.398,0.013 -3.665,0.04 z"
     style="fill:url(#_Linear6);fill-rule:nonzero;stroke-width:1"
     id="path28" /><path
     d="m 125.873,31.528 c 0,0 -3.75,10.875 -22.125,16.125 -18.374999,5.25 -38.061999,1.875 -38.061999,1.875 0,0 4.686999,-12.375 18.187,-18.187 C 97.373,25.528 121.186,30.778 125.873,31.528"
     style="fill:#02bef3;fill-rule:nonzero;stroke-width:1"
     id="path30" /><path
     d="M 83.538,32.552 C 72.55,37.283 67.364,46.439 65.843,49.607 c 2.266,0.309 7.463,0.902 13.983,0.902 8.656,0 16.566,-1.006 23.51,-2.99 14.825,-4.235 20.235,-12.672 21.72,-15.505 -0.243,-0.043 -17.126,-3.378 -26.757999,-3.378 -6.903001,0 -10.593,2.121 -14.760001,3.916 z"
     style="fill:url(#_Radial7);fill-rule:nonzero;stroke-width:1"
     id="path32" /><path
     d="m 59.915001,51.278 c 0,0 -26.740001,-1.259 -42.435001,-12.71 C 1.784,27.117 2.146,23.342 2.146,23.342 c 0,0 17.598999,-0.054 26.286,3.078 8.688,3.133 22.336001,11.948 31.483001,24.858"
     style="fill:#02bef3;fill-rule:nonzero;stroke-width:1"
     id="path34" /><path
     d="M 18.403001,38.359 C 24.472,42.787 31.799,45.917 40.409,48.023 c 0.002,10e-4 0.002,10e-4 0.004,10e-4 9.149,1.098 16.735,2.791 18.559,2.947 C 54.956,45.508 49.957,40.566 44.591,36.453 39.398,32.463 33.917,29.31 29.363,27.511 28.518,27.174 27.623,26.872 26.701001,26.596 18.683,24.199 5.2360001,24.042 3.168,24.012 c 0.5090001,0.942 2.299,4.909 15.235001,14.347 z"
     style="fill:url(#_Radial8);fill-rule:nonzero;stroke-width:1"
     id="path36" /><path
     d="m 60.107,53.87 c 2.377,0.304 3.66,5.62 2.862,11.865 -0.798,6.244 -3.376,11.067 -5.754,10.763 -2.377,-0.303 -3.66,-5.62 -2.862,-11.864 0.798,-6.245 3.376,-11.068 5.754,-10.764 z"
     style="fill:url(#_Radial9);stroke-width:1"
     id="path38" /><g
     id="g48"><path
       d="m 63.623,50.523 c -7.957,1.497 3.291,37.119 15.337,42.529 23.156,10.401 35.993,-9.611 35.993,-16.859 0,-7.249 -31.884,-29.326 -51.33,-25.67 z"
       style="fill:url(#_Radial10);fill-rule:nonzero"
       id="path40" /><path
       d="M 52.38,60.705 C 49.485,65.966 72.746,83.87 83.148,81.871 93.55,79.872 107.419,69.342 106.34,63.619 105.261,57.895 86.345,42.036 71.209,47.706 61.28,51.425 55.275,55.444 52.38,60.705 Z"
       style="fill:url(#_Radial11);fill-rule:nonzero"
       id="path42" /><path
       d="M 62.304,63.032 C 60.127,68.629 75.384,84.566 85.432,81.214 95.48,77.862 107.841,65.597 106.018,60.066 104.194,54.535 83.354,41.305 69.097,48.92 c -9.352,4.994 -4.616,8.515 -6.793,14.112 z"
       style="fill:url(#_Radial12);fill-rule:nonzero"
       id="path44" /><path
       d="M 60.721,60.475 C 58.867,65.196 71.802,78.616 80.337,75.779 88.872,72.942 99.38,62.588 97.838,57.926 96.296,53.264 78.617,42.133 66.504,48.569 58.559,52.79 62.576,55.754 60.721,60.475 Z"
       style="fill:url(#_Radial13);fill-rule:nonzero"
       id="path46" /></g><g
     id="g56"><path
       d="M 63.547,59.973 C 61.97,64.766 44.374,84.569 32.235,87.347 20.095,90.126 8.142,77.425 7.023,71.562 5.904,65.7 24.225,48.99 42.998,47.542 c 12.314,-0.95 23.195,4.395 20.549,12.431"
       style="fill:url(#_Radial14);fill-rule:nonzero"
       id="path50" /><path
       d="M 63.205,57.315 C 61.991,62.895 45.836,85.099 33.848,87.464 21.859,89.832 8.86,73.791 7.281,66.728 5.703,59.665 22.826,41.199 41.586,40.93 53.89,40.753 65.242,47.956 63.205,57.315"
       style="fill:url(#_Radial15);fill-rule:nonzero"
       id="path52" /><path
       d="M 54.504,60.754 C 52.787,63.856 38.701,74.587 30.622,74.27 22.543,73.954 16.914,62.693 17.091,58.324 17.268,53.955 31.346,45.556 43.41,48.065 c 7.913,1.647 13.974,7.488 11.094,12.689"
       style="fill:url(#_Radial16);fill-rule:nonzero"
       id="path54" /></g><path
     d="M 36.741,55.538 C 33.222,55.974 16.259,50.894 11.763,44.173 7.266,37.454 13.062,26.278 16.7,23.851 20.337,21.425 35.41,27.869 40.477001,39.102 43.8,46.47 42.641,54.807 36.741,55.538"
     style="fill:url(#_Radial17);fill-rule:nonzero;stroke-width:1"
     id="path58" /><g
     id="g66"><path
       d="m 98.43,26.371 c 15.231,-2.015 28.385,2.308 29.356,9.649 0.972,7.34 -10.605,14.936 -25.836,16.951 C 86.719,54.986 73.566,50.663 72.594,43.323 71.623,35.982 83.2,28.387 98.43,26.371 Z"
       style="fill:url(#_Radial18)"
       id="path60" /><path
       d="m 101.52,27.364 c 13.736,1.417 24.292,8.341 23.559,15.452 C 124.345,49.927 112.597,54.55 98.861,53.132 85.124,51.715 74.568,44.791 75.302,37.68 76.036,30.569 87.783,25.946 101.52,27.364 Z"
       style="fill:url(#_Radial19)"
       id="path62" /><path
       d="m 91.728,29.668 c 11.581,-1.43 21.601,2.407 22.36,8.562 0.76,6.154 -8.027,12.311 -19.608,13.74 -11.582,1.429 -21.602,-2.407 -22.361,-8.562 -0.76,-6.154 8.027,-12.311 19.609,-13.74 z"
       style="fill:url(#_Radial20)"
       id="path64" /></g><path
     d="m 61.347001,51.035 c 0.022,0.368 0.979,7.845 -5.490001,10.653 C 50.854001,63.859 44.704001,64.93 31.066,58.741 17.427001,52.553 12.688,43.562 12.688,43.562 c 0,0 7.629001,2.802 12.367001,3.153 C 29.794,47.065 42.045,48.816 45.166,49.4 c 3.12,0.584 8.668,0.117 10.749,-0.35 2.08,-0.468 5.201001,-1.752 5.432001,1.985"
     style="fill:#b3c3ce;fill-rule:nonzero;stroke-width:1"
     id="path68" /><path
     d="m 31.065,58.366 c 13.639001,6.189 19.79,5.118 24.792,2.948 6.468,-2.809 5.512,-10.286 5.490001,-10.655 C 61.115,46.923 57.995,48.208 55.915,48.675 c -2.081,0.467 -7.489999,0.137 -11.979,-0.178 -5.344,-0.375 -13.969,-1.5 -18.88,-2.158 -4.71,-0.63 -12.368,-3.153 -12.368,-3.153 0,0 4.74,8.991 18.377,15.18 z"
     style="fill:url(#_Linear21);fill-rule:nonzero;stroke-width:1"
     id="path70" /><path
     d="m 57.256001,44.227 c 0,0 -4.342001,-3.433 -7.875,-7.168 C 45.847,33.323 34.438001,22.52 31.611,19.592 28.785001,16.665 21.111,6.669 20.101,2.428 c -2.322001,5.15 -3.836,14.539 -1.009,23.626 2.826,9.087 9.39,15.649 18.072,19.284 8.683,3.634 16.255,3.433 18.375,3.433 2.121,0 5.049,-1.414 1.717001,-4.544"
     style="fill:#f5f6f2;fill-rule:nonzero;stroke-width:1"
     id="path72" /><path
     d="m 19.467,26.054 c 2.827,9.086 9.39,15.649 18.073,19.283 8.682,3.636 16.254001,3.687 18.375,3.687 1.197,0 4.989,-0.152 5.177,-0.714 0.403001,-1.211 -1.926,-2.108 -3.374999,-3.469 C 53.869001,41.799 53.941,41.483 49.756,37.059 46.222,33.323 34.813,22.52 31.987,19.592 29.16,16.664 21.485,6.669 20.475999,2.428 18.154,7.577 16.639001,16.967 19.467,26.054 Z"
     style="fill:url(#_Linear22);fill-rule:nonzero;stroke-width:1"
     id="path74" /><path
     d="m 105.331,7.54 c -3.75,3.375 -10.394999,7.863 -16.769999,11.988 -6.375,4.125 -10.5,11.063 -15.375001,18.375 -4.875,7.313 -9.749999,10.875 -9.749999,10.875 0,0 7.687,1.125 14.999999,1.125 11.256,0 24,-9.375 28.687,-14.437 4.688,-5.063 7.838,-13.31 7.875,-21.75 0.043,-9.861 -4.519,-11.792 -4.519,-11.792 0,0 -1.398,2.241 -5.148,5.616 z"
     style="fill:url(#_Linear23);fill-rule:nonzero;stroke-width:1"
     id="path76" /><path
     d="m 105.859,6.779 c -3.751,3.375 -11.297999,8.624 -17.672999,12.749 -6.375,4.125 -10.5,11.063 -15.375001,18.375 -3.75,5.626 -8.443999,8.724 -10.409999,10.329 C 61.811,48.714 61.467,49.997 61.467,49.997 c 6.769,0.99 8.351,-0.094 16.594001,-0.094 11.254999,0 23.999999,-9.375 28.686999,-14.437 4.688,-5.063 7.688,-13.313 7.875,-21.75 0.188,-8.438 -4.125,-11.813 -4.125,-11.813 0,0 -0.89,1.501 -4.639,4.876 z"
     style="fill:url(#_Linear24);fill-rule:nonzero;stroke-width:1"
     id="path78" /><g
     id="g84"><path
       d="m 44.632,31.45 c 8.133,5.258 12.662,12.735 10.107,16.686 -2.555,3.952 -11.232,2.89 -19.364,-2.368 C 27.242,40.509 22.713,33.032 25.268,29.081 27.823,25.13 36.5,26.191 44.632,31.45 Z"
       style="fill:url(#_Radial25)"
       id="path80" /><path
       d="m 43.849,30.894 c 7.726,5.84 12.066,13.139 9.684,16.29 -2.382,3.151 -10.588,0.968 -18.314,-4.871 -7.726,-5.839 -12.065,-13.139 -9.684,-16.29 2.382,-3.151 10.588,-0.968 18.314,4.871 z"
       style="fill:url(#_Radial26)"
       id="path82" /></g><g
     id="g94"><path
       d="M 78.741,36.006 C 86.779,31.512 94.699,30.358 96.416,33.429 98.132,36.5 93.001,42.641 84.963,47.135 76.925,51.628 69.006,52.783 67.289,49.712 65.572,46.641 70.704,40.5 78.741,36.006 Z"
       style="fill:url(#_Radial27)"
       id="path86" /><path
       d="m 81.132,32.187 c 7.951,-4.445 15.94,-5.31 17.83,-1.93 1.89,3.38 -3.032,9.733 -10.983,14.178 -7.951,4.445 -15.94,5.31 -17.829,1.93 -1.89,-3.38 3.031,-9.733 10.982,-14.178 z"
       style="fill:url(#_Radial28)"
       id="path88" /><path
       d="m 80.126,35.267 c 7.501,-5.169 15.482,-6.621 17.812,-3.24 2.331,3.381 -1.867,10.323 -9.367,15.493 -7.5,5.169 -15.481,6.621 -17.812,3.24 -2.33,-3.381 1.867,-10.323 9.367,-15.493 z"
       style="fill:url(#_Radial29)"
       id="path90" /><path
       d="m 89.308,27.918 c 2.879,-6.448 7.508,-10.659 10.333,-9.399 2.824,1.261 2.78,7.52 -0.098,13.967 -2.879,6.448 -7.509,10.659 -10.333,9.399 -2.824,-1.261 -2.78,-7.519 0.098,-13.967 z"
       style="fill:url(#_Radial30)"
       id="path92" /></g><path
     d="m 26.696,18.134 c -0.805,5.903 0.586001,11.978 3.363,15.977 2.778,4.002 10.763001,11.808 18.631,12.918 5.111001,0.719 10.596001,0.69 10.596001,0.69 0,0 -3.058,-2.97 -5.745001,-8.562 C 50.854001,33.566 48.653,28.311 44.604001,24.799 40.554001,21.289 36.35,17.497 34.061001,14.768 31.773,12.04 31.017,10.337 31.017,10.337 c 0,0 -3.38,0.899 -4.321,7.797 z"
     style="fill:url(#_Linear31);fill-rule:nonzero;stroke-width:1"
     id="path96" /><path
     d="m 26.959,18.171 c -0.7,5.916 0.585,11.978 3.363001,15.978 C 33.1,38.149 41.084,45.957 48.952,47.065 c 5.762,0.812 6.31,1.127 11.139,1.101 0,0 -3.599999,-3.381 -6.287999,-8.972 C 51.115001,33.603 48.916,28.347 44.866,24.836 40.816,21.326 36.058,16.913 33.769,14.185 31.48,11.457 31.005,10.32 31.005,10.32 c 0,0 -3.347,1.934 -4.046,7.851 z"
     style="fill:url(#_Linear32);fill-rule:nonzero;stroke-width:1"
     id="path98" /><g
     id="g106"><path
       d="m 57.708,51.938 c 1.06,3.068 -2.837,7.203 -8.697,9.227 -5.861,2.024 -11.479,1.176 -12.539,-1.892 -1.059,-3.069 2.838,-7.203 8.698,-9.227 5.86,-2.024 11.479,-1.176 12.538,1.892 z"
       style="fill:url(#_Radial33)"
       id="path100" /><path
       d="m 55.199,53.999 c 0.119,2.902 -4.178,5.44 -9.592,5.663 -5.413,0.223 -9.904,-1.952 -10.024,-4.854 -0.12,-2.903 4.178,-5.44 9.591,-5.664 5.413,-0.223 9.905,1.953 10.025,4.855 z"
       style="fill:url(#_Radial34)"
       id="path102" /><path
       d="m 60.024,52.648 c 0.852,2.014 -2.078,5.179 -6.538,7.064 -4.459,1.885 -8.771,1.781 -9.622,-0.233 -0.851,-2.014 2.079,-5.179 6.538,-7.064 4.46,-1.885 8.771,-1.78 9.622,0.233 z"
       style="fill:url(#_Radial35)"
       id="path104" /></g><path
     d="m 33.667,51.566 c 2.166,3.131 5.442,5.398 8.477,6.086 3.035,0.69 10.168,0.927 14.358,-1.941 2.722,-1.866 5.295001,-4.245 5.295001,-4.245 0,0 -2.723001,-0.081 -6.401001,-1.56 -3.678999,-1.479 -6.984,-3.009 -10.407,-2.919 -3.424999,0.09 -7.043,0.115 -9.299,-0.185 -2.257,-0.299 -3.348,-0.777 -3.348,-0.777 0,0 -1.204999,1.882 1.325,5.541 z"
     style="fill:url(#_Linear36);fill-rule:nonzero;stroke-width:1"
     id="path108" /><path
     d="M 33.807001,51.471 C 36.028,54.562 39.248,56.867 42.283,57.557 c 3.036001,0.688 10.17,0.928 14.358001,-1.942 3.067999,-2.103 3.462,-2.19 5.728999,-4.285 0,0 -3.155,-0.041 -6.835,-1.52 -3.679,-1.478 -6.982,-3.009 -10.407,-2.918 -3.424,0.091 -7.572,0.062 -9.828,-0.238 -2.255999,-0.3 -2.97,-0.632 -2.97,-0.632 0,0 -0.745,2.356 1.477001,5.449 z"
     style="fill:url(#_Linear37);fill-rule:nonzero;stroke-width:1"
     id="path110" /><path
     d="m 100.92,50.491 c -3.372999,1.42 -18.374,0.622 -23.875999,0 C 71.541001,49.87 65.855,49.966 64.794,49.87 c -3.795999,-0.342 -3.105999,0.887 -3.373,4.704 -0.620999,10.563 3.373,12.693 6.302,13.137 2.930001,0.444 5.593001,-0.976 5.593001,-0.976 0,0 29.023999,-13.137 31.686999,-14.558 0.496,-2.724 0.376,-3.586 -0.232,-3.586 -0.7,0 -2.047,1.141 -3.851,1.9 z"
     style="fill:url(#_Radial38);fill-rule:nonzero;stroke-width:1"
     id="path112" /><g
     id="g120"><path
       d="m 73.82,53.958 c 4.948,3.511 7.617,8.26 5.958,10.598 -1.66,2.339 -7.024,1.386 -11.971,-2.126 -4.948,-3.511 -7.617,-8.26 -5.958,-10.599 1.66,-2.338 7.024,-1.385 11.971,2.127 z"
       style="fill:url(#_Radial39)"
       id="path114" /><path
       d="m 72.54,53.958 c 3.799,2.696 5.535,6.783 3.876,9.121 -1.66,2.338 -6.091,2.047 -9.889,-0.649 -3.799,-2.696 -5.535,-6.783 -3.876,-9.121 1.66,-2.338 6.091,-2.047 9.889,0.649 z"
       style="fill:url(#_Radial40)"
       id="path116" /><path
       d="m 76.317,54.251 c 3.798,2.696 5.534,6.783 3.875,9.121 -1.66,2.338 -6.091,2.048 -9.889,-0.648 -3.798,-2.696 -5.535,-6.783 -3.875,-9.122 1.659,-2.338 6.09,-2.047 9.889,0.649 z"
       style="fill:url(#_Radial41)"
       id="path118" /></g><path
     d="m 63.496,55.18 c 2.637001,4.341 9.236,7.059 12.286,7.681 3.05,0.622 6.968,-0.097 10.231,-2.059 3.811,-2.292 3.487,-4.503 3.487,-4.503 0,0 -1.190999,-0.015 -3.37,-0.669 -2.179999,-0.657 -5.468,-2.168 -8.551,-3.66 -3.083,-1.491 -6.723999,-1.457 -10.686,-1.624 -3.960999,-0.167 -6.476,-1.212 -6.476,-1.212 0,0 1.366001,3.228 3.079,6.046 z"
     style="fill:url(#_Linear42);fill-rule:nonzero;stroke-width:1"
     id="path122" /><path
     d="m 63.409001,55.036 c 2.634999,4.341 9.235,7.059 12.284999,7.68 3.050001,0.622 6.933,-0.154 10.23,-2.058 3.298,-1.903 3.588001,-4.356 3.588001,-4.356 0,0 -0.786001,0.007 -2.965,-0.648 -2.180001,-0.656 -5.972001,-2.337 -9.056,-3.828 -3.083,-1.492 -6.724001,-1.458 -10.686,-1.624 -3.961001,-0.168 -6.854,-1.429 -6.854,-1.429 1.203,2.843 1.526999,3.085 3.458,6.263 z"
     style="fill:url(#_Linear43);fill-rule:nonzero;stroke-width:1"
     id="path124" /><path
     d="m 104.029,52.622 c 0,0 1.219,-0.937 1.125,-2.812 -0.093,-1.875 0.375,-4.688 -9.561999,-10.782 -3.281,5.907 -14.625,21.657 -19.594001,25.219 -4.969,3.563 -5.764999,3.442 -5.764999,3.442 0,0 2.870999,-0.343 5.39,-2.223 C 78.346,63.434 104.029,52.622 104.029,52.622"
     style="fill:#cbd3dd;fill-rule:nonzero;stroke-width:1"
     id="path126" /><path
     d="m 76.373,64.435 c -3.085,2.212 -4.025999,2.655 -4.716,2.945 0.257,-0.077 2.189,-0.583 4.341,-1.726 3,-1.594 28.406,-12.844 28.406,-12.844 0,0 1.219,-0.938 1.125,-2.813 -0.093,-1.875 0.375,-4.687 -9.562,-10.781 -3.280999,5.906 -14.625,21.657 -19.594,25.219 z"
     style="fill:url(#_Linear44);fill-rule:nonzero;stroke-width:1"
     id="path128" /><path
     d="M 60.909001,53.32 C 60.291,53.319 54.887,63.139 57.418,74.389 c 0,0 3.615,-4.338 4.058,-15.247 0.183,-4.5 -0.132999,-5.822 -0.566999,-5.822 z"
     style="fill:url(#_Linear45);fill-rule:nonzero;stroke-width:1"
     id="path130" /><path
     d="m 46.823,22.051 c 1.272,-1.24 5.598,-0.248 6.615001,1.116 0.994999,1.333 6.118,6.458 5.875,14.213 0.788,0.033 1.832,0.17 3.031,0.17 1.035999,0 1.993999,-0.102 2.781,-0.152 -0.252,-7.765 4.877999,-12.897 5.873,-14.231 1.017,-1.364 5.342999,-2.356 6.614999,-1.116 1.273,1.24 -2.035,1.116 -3.562,0.744 C 69.11,23.889 65.954001,34.834 65.282001,37.389 66.434,37.326 67.178,37.407 67.178,38.17 c 0,1.156 -1.619,3.021 -3.872,3.221 0.092,0.464 0.627001,3.053 0.024,5.777 -0.245,1.107 -2.519,2.36 -2.519,2.36 -2.414999,-7.912 -0.023,-8.682 0.01,-8.748 -1.977999,-0.296 -3.057,-1.549 -3.057,-2.61 0,-0.676 0.517,-0.817 1.387,-0.796 -0.681,-2.582 -3.835,-13.487 -8.765,-14.579 -1.527,0.372 -4.834999,0.496 -3.563,-0.744"
     style="fill:#00c6f9;fill-rule:nonzero;stroke-width:1"
     id="path132" /><path
     d="m 70.998001,23.542 c -0.995001,1.335 -6.125,6.465 -5.873,14.232 -0.787001,0.049 -1.746,0.151 -2.781,0.151 -1.199,0 -2.243,-0.136 -3.031,-0.17 C 59.556001,30 54.433,24.875 53.439,23.542 c -1.018,-1.365 -5.344,-2.356 -6.616,-1.116 -1.271999,1.24 2.036,1.116 3.563,0.744 4.93,1.092 8.084,11.997 8.765,14.579 -0.87,-0.02 -1.387,0.12 -1.387,0.796 0,1.061 0.786001,2.39 2.763,2.684 -0.033,0.066 -1.658,1.243 0.284,8.674 0,0 3.102001,-0.292 2.628,-6.639 -0.054,-0.733 -0.129999,-1.319 -0.222999,-1.783 2.252,-0.201 3.961999,-1.781 3.961999,-2.936 0,-0.762 -0.744,-0.843 -1.897,-0.781 0.674,-2.555 3.829,-13.5 8.77,-14.594 1.527,0.372 4.835,0.496 3.562,-0.744 -0.407999,-0.398 -1.129999,-0.566 -1.955999,-0.566 -1.750001,0 -3.968001,0.755 -4.659,1.682 z"
     style="fill:url(#_Radial46);fill-rule:nonzero;stroke-width:1"
     id="path134" /><path
     d="m 50.005001,10.069 c -0.937001,1.89 2.368,2.172 3.492999,1.605 3.635,1.665 5.958001,18.288 6.460001,22.224 -0.641001,-0.032 -1.022,0.182 -1.022,1.212 0,1.617 0.872999,3.929 2.328999,4.38 -0.024,0.1 -0.037,0.16 -0.037,0.16 0,0 -2.479999,4.628 -0.417,14.753 0,0 2.307001,-5.062 2.307001,-12.099 0,-1.119 -0.096,-2.01 -0.165001,-2.718 1.66,-0.306 2.92,-2.714 2.92,-4.476 0,-1.161 -0.547,-1.285 -1.396999,-1.189 0.386999,-4.644 1.968999,-20.385 6.463,-22.247 1.124999,0.567 4.286,0.354 3.347999,-1.536 -0.936999,-1.89 -4.255,-0.383 -5.571,1.387 -1.445,1.942 -4.932,10.629 -4.747,22.466 -0.579,0.076 -0.895999,0.174 -1.658,0.174 -0.883,0 -1.653,-0.208 -2.234,-0.259 C 60.256,22.084 56.4,14.3 55.748,12.241 55.132,10.291 53.215001,9.139 51.721,9.139 c -0.755,0 -1.401,0.295 -1.715999,0.93 z"
     style="fill:url(#_Linear47);fill-rule:nonzero;stroke-width:1"
     id="path136" /><path
     d="m 50.005001,10.437 c -0.937001,1.874 2.368,2.154 3.492999,1.591 3.635,1.652 5.958001,18.142 6.460001,22.047 -0.641001,-0.031 -1.022,0.181 -1.022,1.203 0,1.604 0.872999,3.897 2.328999,4.344 -0.024,0.099 -0.037,0.159 -0.037,0.159 0,0 -4.295,14.834 -1.469999,24.548 0,0 3.707999,-12.317 3.36,-21.915 -0.04,-1.109 -0.096,-1.994 -0.165001,-2.697 1.66,-0.302 2.92,-2.691 2.92,-4.439 0,-1.153 -0.547,-1.275 -1.396999,-1.181 0.386999,-4.606 1.968999,-20.221 6.463,-22.069 1.124999,0.563 4.286,0.352 3.347999,-1.523 -0.936999,-1.875 -4.255,-0.38 -5.571,1.376 -1.445,1.926 -4.932,10.544 -4.747,22.287 -0.579,0.075 -0.895999,0.173 -1.658,0.173 -0.883,0 -1.653,-0.207 -2.234,-0.257 C 60.256,22.355 56.4,14.635 55.748,12.591 55.132,10.657 53.215001,9.514 51.721,9.514 50.967,9.515 50.32,9.807 50.005001,10.437 Z"
     style="fill:url(#_Linear48);fill-rule:nonzero;stroke-width:1"
     id="path138" /><path
     d="m 66.278001,44.291 c 0,0 3.742999,-2.96 6.791,-6.181 C 76.116,34.888 85.954,25.573 88.392,23.047 90.83,20.523 97.447001,11.903 98.318001,8.246 100.321,12.687 101.626,20.784 99.188001,28.619 96.751,36.455 91.091,42.115 83.604,45.249 c -7.488,3.134 -14.017999,2.96 -15.845,2.96 -1.829,0 -4.354,-1.219 -1.480999,-3.918"
     style="fill:#f5f6f2;fill-rule:nonzero;stroke-width:1"
     id="path140" /><path
     d="M 88.069,23.047 C 85.630001,25.573 75.793001,34.888 72.746001,38.11 69.137,41.925 69.199,42.197 65.881001,44.821 64.631,45.994 62.676,47.328 62.935,47.893 c 0.259,0.564 3.467,0.316 4.5,0.316 1.828,0 8.358001,0.174 15.846,-2.96 7.487001,-3.134 13.146001,-8.794 15.584,-16.629 2.439,-7.836 1.132,-15.933 -0.870999,-20.374 -0.87,3.658 -7.487001,12.277 -9.925001,14.801 z"
     style="fill:url(#_Linear49);fill-rule:nonzero;stroke-width:1"
     id="path142" /><defs
     id="defs530"><linearGradient
       id="_Linear1"
       x1="0"
       y1="0"
       x2="1"
       y2="0"
       gradientUnits="userSpaceOnUse"
       gradientTransform="matrix(0,-56.6692,56.6692,0,299.387,73.7943)"><stop
         offset="0"
         style="stop-color:#2196f3;stop-opacity:1"
         id="stop172" /><stop
         offset="0.01"
         style="stop-color:#2196f3;stop-opacity:1"
         id="stop174" /><stop
         offset="1"
         style="stop-color:#00c0f3;stop-opacity:1"
         id="stop176" /></linearGradient><linearGradient
       id="_Linear2"
       x1="0"
       y1="0"
       x2="1"
       y2="0"
       gradientUnits="userSpaceOnUse"
       gradientTransform="matrix(0,-56.6692,56.6692,0,313.219,73.7943)"><stop
         offset="0"
         style="stop-color:#2196f3;stop-opacity:1"
         id="stop179" /><stop
         offset="0.01"
         style="stop-color:#2196f3;stop-opacity:1"
         id="stop181" /><stop
         offset="1"
         style="stop-color:#00c0f3;stop-opacity:1"
         id="stop183" /></linearGradient><linearGradient
       id="_Linear3"
       x1="0"
       y1="0"
       x2="1"
       y2="0"
       gradientUnits="userSpaceOnUse"
       gradientTransform="matrix(-12.1464,7.83636,-7.83636,-12.1464,353.869,59.5849)"><stop
         offset="0"
         style="stop-color:#2196f3;stop-opacity:1"
         id="stop186" /><stop
         offset="0.01"
         style="stop-color:#2196f3;stop-opacity:1"
         id="stop188" /><stop
         offset="1"
         style="stop-color:#00c0f3;stop-opacity:1"
         id="stop190" /></linearGradient><linearGradient
       id="_Linear4"
       x1="0"
       y1="0"
       x2="1"
       y2="0"
       gradientUnits="userSpaceOnUse"
       gradientTransform="matrix(-6.465,27.8191,-27.8191,-6.465,351.575,31.532)"><stop
         offset="0"
         style="stop-color:#2196f3;stop-opacity:1"
         id="stop193" /><stop
         offset="0.01"
         style="stop-color:#2196f3;stop-opacity:1"
         id="stop195" /><stop
         offset="1"
         style="stop-color:#00c0f3;stop-opacity:1"
         id="stop197" /></linearGradient><radialGradient
       id="_Radial5"
       cx="0"
       cy="0"
       r="1"
       gradientUnits="userSpaceOnUse"
       gradientTransform="matrix(-66.138701,0,0,66.1387,62.574701,49.8221)"><stop
         offset="0"
         style="stop-color:#3d4ead;stop-opacity:1"
         id="stop200" /><stop
         offset="1"
         style="stop-color:#00c0f3;stop-opacity:1"
         id="stop202" /></radialGradient><linearGradient
       id="_Linear6"
       x1="0"
       y1="0"
       x2="1"
       y2="0"
       gradientUnits="userSpaceOnUse"
       gradientTransform="matrix(-54.735501,0,0,-32.1015,60.314701,67.0176)"><stop
         offset="0"
         style="stop-color:#3f51b4;stop-opacity:1"
         id="stop205" /><stop
         offset="1"
         style="stop-color:#00c0f3;stop-opacity:1"
         id="stop207" /></linearGradient><radialGradient
       id="_Radial7"
       cx="0"
       cy="0"
       r="1"
       gradientUnits="userSpaceOnUse"
       gradientTransform="matrix(-66.137401,0,0,66.1374,62.574901,49.8221)"><stop
         offset="0"
         style="stop-color:#3d4ead;stop-opacity:1"
         id="stop210" /><stop
         offset="1"
         style="stop-color:#00c0f3;stop-opacity:1"
         id="stop212" /></radialGradient><radialGradient
       id="_Radial8"
       cx="0"
       cy="0"
       r="1"
       gradientUnits="userSpaceOnUse"
       gradientTransform="matrix(-52.6361,-107.604,-12.8428,112.241,50.780401,124.457)"><stop
         offset="0"
         style="stop-color:#0072e9;stop-opacity:1"
         id="stop215" /><stop
         offset="1"
         style="stop-color:#00fdfe;stop-opacity:1"
         id="stop217" /></radialGradient><radialGradient
       id="_Radial9"
       cx="0"
       cy="0"
       r="1"
       gradientUnits="userSpaceOnUse"
       gradientTransform="matrix(4.0052001,0.526563,-1.46889,11.3112,58.661101,65.1843)"><stop
         offset="0"
         style="stop-color:#153e68;stop-opacity:0.34"
         id="stop220" /><stop
         offset="1"
         style="stop-color:#153e68;stop-opacity:0.01"
         id="stop222" /></radialGradient><radialGradient
       id="_Radial10"
       cx="0"
       cy="0"
       r="1"
       gradientUnits="userSpaceOnUse"
       gradientTransform="matrix(-10.3568,10.999,26.0381,24.5177,76.5301,64.2632)"><stop
         offset="0"
         style="stop-color:#00336f;stop-opacity:1"
         id="stop225" /><stop
         offset="1"
         style="stop-color:#00336f;stop-opacity:0"
         id="stop227" /></radialGradient><radialGradient
       id="_Radial11"
       cx="0"
       cy="0"
       r="1"
       gradientUnits="userSpaceOnUse"
       gradientTransform="matrix(-6.51962,11.4057,24.5674,14.4231,74.7463,58.6441)"><stop
         offset="0"
         style="stop-color:#00336f;stop-opacity:0.5"
         id="stop230" /><stop
         offset="1"
         style="stop-color:#00336f;stop-opacity:0"
         id="stop232" /></radialGradient><radialGradient
       id="_Radial12"
       cx="0"
       cy="0"
       r="1"
       gradientUnits="userSpaceOnUse"
       gradientTransform="matrix(-4.96046,12.1651,26.2531,11.0614,74.0442,59.2965)"><stop
         offset="0"
         style="stop-color:#00336f;stop-opacity:0.5"
         id="stop235" /><stop
         offset="1"
         style="stop-color:#00336f;stop-opacity:0"
         id="stop237" /></radialGradient><radialGradient
       id="_Radial13"
       cx="0"
       cy="0"
       r="1"
       gradientUnits="userSpaceOnUse"
       gradientTransform="matrix(-4.22491,10.2622,22.277,9.29717,70.6931,57.3125)"><stop
         offset="0"
         style="stop-color:#00336f;stop-opacity:1"
         id="stop240" /><stop
         offset="1"
         style="stop-color:#00336f;stop-opacity:0"
         id="stop242" /></radialGradient><radialGradient
       id="_Radial14"
       cx="0"
       cy="0"
       r="1"
       gradientUnits="userSpaceOnUse"
       gradientTransform="matrix(-9.78901,-10.0451,-28.1355,22.8978,44.6851,58.4131)"><stop
         offset="0"
         style="stop-color:#002d68;stop-opacity:1"
         id="stop245" /><stop
         offset="1"
         style="stop-color:#002d68;stop-opacity:0"
         id="stop247" /></radialGradient><radialGradient
       id="_Radial15"
       cx="0"
       cy="0"
       r="1"
       gradientUnits="userSpaceOnUse"
       gradientTransform="matrix(-10.6184,-12.7117,-26.5102,25.0697,44.123,53.9971)"><stop
         offset="0"
         style="stop-color:#002d68;stop-opacity:1"
         id="stop250" /><stop
         offset="1"
         style="stop-color:#002d68;stop-opacity:0"
         id="stop252" /></radialGradient><radialGradient
       id="_Radial16"
       cx="0"
       cy="0"
       r="1"
       gradientUnits="userSpaceOnUse"
       gradientTransform="matrix(-4.66402,-8.96904,-21.2029,10.9396,42.8368,56.0939)"><stop
         offset="0"
         style="stop-color:#002d68;stop-opacity:1"
         id="stop255" /><stop
         offset="1"
         style="stop-color:#002d68;stop-opacity:0"
         id="stop257" /></radialGradient><radialGradient
       id="_Radial17"
       cx="0"
       cy="0"
       r="1"
       gradientUnits="userSpaceOnUse"
       gradientTransform="matrix(4.5100701,-9.04744,-21.318501,-10.7126,33.6469,43.3607)"><stop
         offset="0"
         style="stop-color:#002d68;stop-opacity:1"
         id="stop260" /><stop
         offset="1"
         style="stop-color:#002d68;stop-opacity:0"
         id="stop262" /></radialGradient><radialGradient
       id="_Radial18"
       cx="0"
       cy="0"
       r="1"
       gradientUnits="userSpaceOnUse"
       gradientTransform="matrix(55.5618,-7.25333,2.08197,15.9483,72.5849,43.2523)"><stop
         offset="0"
         style="stop-color:#00326d;stop-opacity:1"
         id="stop265" /><stop
         offset="1"
         style="stop-color:#003b79;stop-opacity:0"
         id="stop267" /></radialGradient><radialGradient
       id="_Radial19"
       cx="0"
       cy="0"
       r="1"
       gradientUnits="userSpaceOnUse"
       gradientTransform="matrix(50.0892,5.26339,-1.61895,15.4438,75.3088,37.6118)"><stop
         offset="0"
         style="stop-color:#00326d;stop-opacity:1"
         id="stop270" /><stop
         offset="1"
         style="stop-color:#003b79;stop-opacity:0"
         id="stop272" /></radialGradient><radialGradient
       id="_Radial20"
       cx="0"
       cy="0"
       r="1"
       gradientUnits="userSpaceOnUse"
       gradientTransform="matrix(42.2509,-5.13094,1.62846,13.3715,72.1116,43.3493)"><stop
         offset="0"
         style="stop-color:#00326d;stop-opacity:1"
         id="stop275" /><stop
         offset="1"
         style="stop-color:#003b79;stop-opacity:0"
         id="stop277" /></radialGradient><linearGradient
       id="_Linear21"
       x1="0"
       y1="0"
       x2="1"
       y2="0"
       gradientUnits="userSpaceOnUse"
       gradientTransform="matrix(-48.720601,0,0,48.7206,61.408902,53.1008)"><stop
         offset="0"
         style="stop-color:#f5f7fa;stop-opacity:1"
         id="stop280" /><stop
         offset="0.53"
         style="stop-color:#f1f4f2;stop-opacity:1"
         id="stop282" /><stop
         offset="1"
         style="stop-color:#bad7e9;stop-opacity:1"
         id="stop284" /></linearGradient><linearGradient
       id="_Linear22"
       x1="0"
       y1="0"
       x2="1"
       y2="0"
       gradientUnits="userSpaceOnUse"
       gradientTransform="matrix(-43.207701,0,0,43.2077,61.138201,25.6029)"><stop
         offset="0"
         style="stop-color:#fafafa;stop-opacity:1"
         id="stop287" /><stop
         offset="0.26"
         style="stop-color:#f1f6f8;stop-opacity:1"
         id="stop289" /><stop
         offset="0.73"
         style="stop-color:#dce5eb;stop-opacity:1"
         id="stop291" /><stop
         offset="1"
         style="stop-color:#bbcfda;stop-opacity:1"
         id="stop293" /></linearGradient><linearGradient
       id="_Linear23"
       x1="0"
       y1="0"
       x2="1"
       y2="0"
       gradientUnits="userSpaceOnUse"
       gradientTransform="matrix(0,-47.9791,-47.979101,0,89.217102,49.9033)"><stop
         offset="0"
         style="stop-color:#fdfdff;stop-opacity:1"
         id="stop296" /><stop
         offset="0.26"
         style="stop-color:#f1f2f2;stop-opacity:1"
         id="stop298" /><stop
         offset="0.73"
         style="stop-color:#bfd2e0;stop-opacity:1"
         id="stop300" /><stop
         offset="1"
         style="stop-color:#afc0cc;stop-opacity:1"
         id="stop302" /></linearGradient><linearGradient
       id="_Linear24"
       x1="0"
       y1="0"
       x2="1"
       y2="0"
       gradientUnits="userSpaceOnUse"
       gradientTransform="matrix(0,-48.0543,-48.054301,0,88.423102,49.9576)"><stop
         offset="0"
         style="stop-color:#f1f6f6;stop-opacity:1"
         id="stop305" /><stop
         offset="0.41"
         style="stop-color:#fdfdfd;stop-opacity:1"
         id="stop307" /><stop
         offset="0.55"
         style="stop-color:#f5f8fa;stop-opacity:1"
         id="stop309" /><stop
         offset="0.89"
         style="stop-color:#d6e1e7;stop-opacity:1"
         id="stop311" /><stop
         offset="0.98"
         style="stop-color:#c3d3dd;stop-opacity:1"
         id="stop313" /><stop
         offset="1"
         style="stop-color:#c3d3dd;stop-opacity:1"
         id="stop315" /></linearGradient><radialGradient
       id="_Radial25"
       cx="0"
       cy="0"
       r="1"
       gradientUnits="userSpaceOnUse"
       gradientTransform="matrix(14.7354,9.52776,-4.62893,7.15901,40.0035,38.6087)"><stop
         offset="0"
         style="stop-color:#153e68;stop-opacity:1"
         id="stop318" /><stop
         offset="1"
         style="stop-color:#153e68;stop-opacity:0"
         id="stop320" /></radialGradient><radialGradient
       id="_Radial26"
       cx="0"
       cy="0"
       r="1"
       gradientUnits="userSpaceOnUse"
       gradientTransform="matrix(13.9988,10.5803,-4.31511,5.70934,39.5341,36.6037)"><stop
         offset="0"
         style="stop-color:#153e68;stop-opacity:1"
         id="stop323" /><stop
         offset="1"
         style="stop-color:#153e68;stop-opacity:0"
         id="stop325" /></radialGradient><radialGradient
       id="_Radial27"
       cx="0"
       cy="0"
       r="1"
       gradientUnits="userSpaceOnUse"
       gradientTransform="matrix(14.5634,-8.14176,3.11074,5.56427,81.8521,41.5703)"><stop
         offset="0"
         style="stop-color:#153e68;stop-opacity:1"
         id="stop328" /><stop
         offset="1"
         style="stop-color:#153e68;stop-opacity:0"
         id="stop330" /></radialGradient><radialGradient
       id="_Radial28"
       cx="0"
       cy="0"
       r="1"
       gradientUnits="userSpaceOnUse"
       gradientTransform="matrix(14.4062,-8.05386,3.42371,6.12408,84.5558,38.3112)"><stop
         offset="0"
         style="stop-color:#153e68;stop-opacity:1"
         id="stop333" /><stop
         offset="1"
         style="stop-color:#153e68;stop-opacity:0"
         id="stop335" /></radialGradient><radialGradient
       id="_Radial29"
       cx="0"
       cy="0"
       r="1"
       gradientUnits="userSpaceOnUse"
       gradientTransform="matrix(13.5894,-9.36638,4.22241,6.1262,84.3487,41.3934)"><stop
         offset="0"
         style="stop-color:#153e68;stop-opacity:1"
         id="stop338" /><stop
         offset="1"
         style="stop-color:#1a426b;stop-opacity:0"
         id="stop340" /></radialGradient><radialGradient
       id="_Radial30"
       cx="0"
       cy="0"
       r="1"
       gradientUnits="userSpaceOnUse"
       gradientTransform="matrix(5.21516,-11.6826,5.1171,2.2843,94.4254,30.2021)"><stop
         offset="0"
         style="stop-color:#153e68;stop-opacity:1"
         id="stop343" /><stop
         offset="1"
         style="stop-color:#1b436c;stop-opacity:0"
         id="stop345" /></radialGradient><linearGradient
       id="_Linear31"
       x1="0"
       y1="0"
       x2="1"
       y2="0"
       gradientUnits="userSpaceOnUse"
       gradientTransform="matrix(4.72457,-33.536,33.536001,4.72457,41.153801,45.9665)"><stop
         offset="0"
         style="stop-color:#fdfdff;stop-opacity:1"
         id="stop348" /><stop
         offset="0.26"
         style="stop-color:#f1f2f2;stop-opacity:1"
         id="stop350" /><stop
         offset="0.73"
         style="stop-color:#bfd2e0;stop-opacity:1"
         id="stop352" /><stop
         offset="1"
         style="stop-color:#afc0cc;stop-opacity:1"
         id="stop354" /></linearGradient><linearGradient
       id="_Linear32"
       x1="0"
       y1="0"
       x2="1"
       y2="0"
       gradientUnits="userSpaceOnUse"
       gradientTransform="matrix(-33.320301,-3.43575e-4,3.43575e-4,-33.3203,60.091301,29.2441)"><stop
         offset="0"
         style="stop-color:#fafafa;stop-opacity:1"
         id="stop357" /><stop
         offset="0.26"
         style="stop-color:#f1f6f8;stop-opacity:1"
         id="stop359" /><stop
         offset="0.73"
         style="stop-color:#dce5eb;stop-opacity:1"
         id="stop361" /><stop
         offset="1"
         style="stop-color:#bbcfda;stop-opacity:1"
         id="stop363" /></linearGradient><radialGradient
       id="_Radial33"
       cx="0"
       cy="0"
       r="1"
       gradientUnits="userSpaceOnUse"
       gradientTransform="matrix(1.92018,5.55941,-10.6179,3.66735,47.0904,55.6053)"><stop
         offset="0"
         style="stop-color:#153e68;stop-opacity:1"
         id="stop366" /><stop
         offset="1"
         style="stop-color:#153e68;stop-opacity:0"
         id="stop368" /></radialGradient><radialGradient
       id="_Radial34"
       cx="0"
       cy="0"
       r="1"
       gradientUnits="userSpaceOnUse"
       gradientTransform="matrix(0.21678,5.25887,-9.80783,0.404296,45.3907,54.4033)"><stop
         offset="0"
         style="stop-color:#153e68;stop-opacity:1"
         id="stop371" /><stop
         offset="1"
         style="stop-color:#153e68;stop-opacity:0"
         id="stop373" /></radialGradient><radialGradient
       id="_Radial35"
       cx="0"
       cy="0"
       r="1"
       gradientUnits="userSpaceOnUse"
       gradientTransform="matrix(1.54211,3.64848,-8.0801,3.41524,51.9443,56.0636)"><stop
         offset="0"
         style="stop-color:#153e68;stop-opacity:1"
         id="stop376" /><stop
         offset="1"
         style="stop-color:#153e68;stop-opacity:0"
         id="stop378" /></radialGradient><linearGradient
       id="_Linear36"
       x1="0"
       y1="0"
       x2="1"
       y2="0"
       gradientUnits="userSpaceOnUse"
       gradientTransform="matrix(-12.2342,-17.8556,17.855601,-12.2342,52.489402,58.4592)"><stop
         offset="0"
         style="stop-color:#fdfdff;stop-opacity:1"
         id="stop381" /><stop
         offset="0.26"
         style="stop-color:#f1f2f2;stop-opacity:1"
         id="stop383" /><stop
         offset="0.73"
         style="stop-color:#bfd2e0;stop-opacity:1"
         id="stop385" /><stop
         offset="1"
         style="stop-color:#afc0cc;stop-opacity:1"
         id="stop387" /></linearGradient><linearGradient
       id="_Linear37"
       x1="0"
       y1="0"
       x2="1"
       y2="0"
       gradientUnits="userSpaceOnUse"
       gradientTransform="matrix(-15.716201,14.3692,-14.3692,-15.7162,54.210101,42.4051)"><stop
         offset="0"
         style="stop-color:#fafafa;stop-opacity:1"
         id="stop390" /><stop
         offset="0.26"
         style="stop-color:#f1f6f8;stop-opacity:1"
         id="stop392" /><stop
         offset="0.73"
         style="stop-color:#dce5eb;stop-opacity:1"
         id="stop394" /><stop
         offset="1"
         style="stop-color:#bbcfda;stop-opacity:1"
         id="stop396" /></linearGradient><radialGradient
       id="_Radial38"
       cx="0"
       cy="0"
       r="1"
       gradientUnits="userSpaceOnUse"
       gradientTransform="matrix(-16.9591,0,0,16.9591,83.334402,58.1937)"><stop
         offset="0"
         style="stop-color:#f9f9fa;stop-opacity:1"
         id="stop399" /><stop
         offset="1"
         style="stop-color:#f5f7f7;stop-opacity:1"
         id="stop401" /></radialGradient><radialGradient
       id="_Radial39"
       cx="0"
       cy="0"
       r="1"
       gradientUnits="userSpaceOnUse"
       gradientTransform="matrix(8.96408,6.36252,-3.00685,4.23632,70.8134,58.194)"><stop
         offset="0"
         style="stop-color:#153e68;stop-opacity:1"
         id="stop404" /><stop
         offset="1"
         style="stop-color:#153e68;stop-opacity:0"
         id="stop406" /></radialGradient><radialGradient
       id="_Radial40"
       cx="0"
       cy="0"
       r="1"
       gradientUnits="userSpaceOnUse"
       gradientTransform="matrix(6.8821,4.88477,-3.00685,4.23632,69.5335,58.194)"><stop
         offset="0"
         style="stop-color:#153e68;stop-opacity:1"
         id="stop409" /><stop
         offset="1"
         style="stop-color:#153e68;stop-opacity:0"
         id="stop411" /></radialGradient><radialGradient
       id="_Radial41"
       cx="0"
       cy="0"
       r="1"
       gradientUnits="userSpaceOnUse"
       gradientTransform="matrix(6.8821,4.88477,-3.00685,4.23632,73.3098,58.4873)"><stop
         offset="0"
         style="stop-color:#153e68;stop-opacity:1"
         id="stop414" /><stop
         offset="1"
         style="stop-color:#153e68;stop-opacity:0"
         id="stop416" /></radialGradient><linearGradient
       id="_Linear42"
       x1="0"
       y1="0"
       x2="1"
       y2="0"
       gradientUnits="userSpaceOnUse"
       gradientTransform="matrix(18.4986,-11.2373,-11.2373,-18.4986,66.021902,59.3376)"><stop
         offset="0"
         style="stop-color:#fdfdff;stop-opacity:1"
         id="stop419" /><stop
         offset="0.26"
         style="stop-color:#f1f2f2;stop-opacity:1"
         id="stop421" /><stop
         offset="0.73"
         style="stop-color:#bfd2e0;stop-opacity:1"
         id="stop423" /><stop
         offset="1"
         style="stop-color:#afc0cc;stop-opacity:1"
         id="stop425" /></linearGradient><linearGradient
       id="_Linear43"
       x1="0"
       y1="0"
       x2="1"
       y2="0"
       gradientUnits="userSpaceOnUse"
       gradientTransform="matrix(8.4091501,19.5646,19.564601,-8.40915,71.061101,43.9983)"><stop
         offset="0"
         style="stop-color:#fafafa;stop-opacity:1"
         id="stop428" /><stop
         offset="0.26"
         style="stop-color:#f1f6f8;stop-opacity:1"
         id="stop430" /><stop
         offset="0.73"
         style="stop-color:#dce5eb;stop-opacity:1"
         id="stop432" /><stop
         offset="1"
         style="stop-color:#bbcfda;stop-opacity:1"
         id="stop434" /></linearGradient><linearGradient
       id="_Linear44"
       x1="0"
       y1="0"
       x2="1"
       y2="0"
       gradientUnits="userSpaceOnUse"
       gradientTransform="matrix(6.4687301,14.3437,14.3437,-6.46873,82.350701,45.5017)"><stop
         offset="0"
         style="stop-color:#aebcd0;stop-opacity:1"
         id="stop437" /><stop
         offset="0.22"
         style="stop-color:#859bb9;stop-opacity:1"
         id="stop439" /><stop
         offset="0.53"
         style="stop-color:#a1b1c9;stop-opacity:1"
         id="stop441" /><stop
         offset="1"
         style="stop-color:#97a9c3;stop-opacity:1"
         id="stop443" /></linearGradient><linearGradient
       id="_Linear45"
       x1="0"
       y1="0"
       x2="1"
       y2="0"
       gradientUnits="userSpaceOnUse"
       gradientTransform="matrix(0,-21.0692,-21.069201,0,59.090301,74.3882)"><stop
         offset="0"
         style="stop-color:#c0cbda;stop-opacity:1"
         id="stop446" /><stop
         offset="0.02"
         style="stop-color:#c0cbda;stop-opacity:1"
         id="stop448" /><stop
         offset="0.11"
         style="stop-color:#d4dbe5;stop-opacity:1"
         id="stop450" /><stop
         offset="0.45"
         style="stop-color:#f5f6f9;stop-opacity:1"
         id="stop452" /><stop
         offset="0.59"
         style="stop-color:#fdfdfd;stop-opacity:1"
         id="stop454" /><stop
         offset="1"
         style="stop-color:#fcfdfd;stop-opacity:1"
         id="stop456" /></linearGradient><radialGradient
       id="_Radial46"
       cx="0"
       cy="0"
       r="1"
       gradientUnits="userSpaceOnUse"
       gradientTransform="matrix(-18.218401,0,0,12.4951,62.218201,35.8819)"><stop
         offset="0"
         style="stop-color:#3f51b5;stop-opacity:1"
         id="stop459" /><stop
         offset="1"
         style="stop-color:#04bbf3;stop-opacity:1"
         id="stop461" /></radialGradient><linearGradient
       id="_Linear47"
       x1="0"
       y1="0"
       x2="1"
       y2="0"
       gradientUnits="userSpaceOnUse"
       gradientTransform="matrix(0,-45.2637,-45.2637,0,62.149301,54.4033)"><stop
         offset="0"
         style="stop-color:#afc0cc;stop-opacity:1"
         id="stop464" /><stop
         offset="0.24"
         style="stop-color:#afc0cc;stop-opacity:1"
         id="stop466" /><stop
         offset="0.74"
         style="stop-color:#f1f2f2;stop-opacity:1"
         id="stop468" /><stop
         offset="1"
         style="stop-color:#fdfdff;stop-opacity:1"
         id="stop470" /></linearGradient><linearGradient
       id="_Linear48"
       x1="0"
       y1="0"
       x2="1"
       y2="0"
       gradientUnits="userSpaceOnUse"
       gradientTransform="matrix(0,-46.5257,-46.525701,0,62.149301,56.0403)"><stop
         offset="0"
         style="stop-color:#fafafa;stop-opacity:1"
         id="stop473" /><stop
         offset="0.26"
         style="stop-color:#f1f6f8;stop-opacity:1"
         id="stop475" /><stop
         offset="0.73"
         style="stop-color:#dce5eb;stop-opacity:1"
         id="stop477" /><stop
         offset="1"
         style="stop-color:#bbcfda;stop-opacity:1"
         id="stop479" /></linearGradient><linearGradient
       id="_Linear49"
       x1="0"
       y1="0"
       x2="1"
       y2="0"
       gradientUnits="userSpaceOnUse"
       gradientTransform="matrix(0,-39.9686,39.9686,0,81.560401,48.215)"><stop
         offset="0"
         style="stop-color:#f1f6f6;stop-opacity:1"
         id="stop482" /><stop
         offset="0.41"
         style="stop-color:#fdfdfd;stop-opacity:1"
         id="stop484" /><stop
         offset="0.55"
         style="stop-color:#f5f8fa;stop-opacity:1"
         id="stop486" /><stop
         offset="0.89"
         style="stop-color:#d6e1e7;stop-opacity:1"
         id="stop488" /><stop
         offset="0.98"
         style="stop-color:#c3d3dd;stop-opacity:1"
         id="stop490" /><stop
         offset="1"
         style="stop-color:#c3d3dd;stop-opacity:1"
         id="stop492" /></linearGradient><linearGradient
       id="_Linear50"
       x1="0"
       y1="0"
       x2="1"
       y2="0"
       gradientUnits="userSpaceOnUse"
       gradientTransform="matrix(0,56.99,-56.99,0,222.499,18.5284)"><stop
         offset="0"
         style="stop-color:#6b6b6b;stop-opacity:1"
         id="stop495" /><stop
         offset="1"
         style="stop-color:#4a4a4a;stop-opacity:1"
         id="stop497" /></linearGradient><linearGradient
       id="_Linear51"
       x1="0"
       y1="0"
       x2="1"
       y2="0"
       gradientUnits="userSpaceOnUse"
       gradientTransform="matrix(0,56.9903,12.5895,0,281.749,18.5279)"><stop
         offset="0"
         style="stop-color:#6b6b6b;stop-opacity:1"
         id="stop500" /><stop
         offset="1"
         style="stop-color:#4b4b4b;stop-opacity:1"
         id="stop502" /></linearGradient><linearGradient
       id="_Linear52"
       x1="0"
       y1="0"
       x2="1"
       y2="0"
       gradientUnits="userSpaceOnUse"
       gradientTransform="matrix(17.0441,33.7943,-33.7943,17.0441,139.694,21.0801)"><stop
         offset="0"
         style="stop-color:#6b6b6b;stop-opacity:1"
         id="stop505" /><stop
         offset="1"
         style="stop-color:#4a4a4a;stop-opacity:1"
         id="stop507" /></linearGradient><linearGradient
       id="_Linear53"
       x1="0"
       y1="0"
       x2="1"
       y2="0"
       gradientUnits="userSpaceOnUse"
       gradientTransform="matrix(23.1173,-6.36705,6.36705,23.1173,153.941,52.2409)"><stop
         offset="0"
         style="stop-color:#6b6b6b;stop-opacity:1"
         id="stop510" /><stop
         offset="1"
         style="stop-color:#4a4a4a;stop-opacity:1"
         id="stop512" /></linearGradient><linearGradient
       id="_Linear54"
       x1="0"
       y1="0"
       x2="1"
       y2="0"
       gradientUnits="userSpaceOnUse"
       gradientTransform="matrix(11.4607,-35.1657,35.1657,11.4607,195.608,59.0142)"><stop
         offset="0"
         style="stop-color:#6b6b6b;stop-opacity:1"
         id="stop515" /><stop
         offset="1"
         style="stop-color:#4a4a4a;stop-opacity:1"
         id="stop517" /></linearGradient><linearGradient
       id="_Linear55"
       x1="0"
       y1="0"
       x2="1"
       y2="0"
       gradientUnits="userSpaceOnUse"
       gradientTransform="matrix(-19.0116,-0.0985055,0.0985055,-19.0116,266.325,54.4147)"><stop
         offset="0"
         style="stop-color:#6b6b6b;stop-opacity:1"
         id="stop520" /><stop
         offset="1"
         style="stop-color:#4a4a4a;stop-opacity:1"
         id="stop522" /></linearGradient><linearGradient
       id="_Linear56"
       x1="0"
       y1="0"
       x2="1"
       y2="0"
       gradientUnits="userSpaceOnUse"
       gradientTransform="matrix(7.05273,-52.9934,52.9934,7.05273,237.313,71.8385)"><stop
         offset="0"
         style="stop-color:#4b4b4b;stop-opacity:1"
         id="stop525" /><stop
         offset="1"
         style="stop-color:#6b6b6b;stop-opacity:1"
         id="stop527" /></linearGradient></defs></svg>
